<svg id="Logo" xmlns="http://www.w3.org/2000/svg" width="179.594" height="48.844" viewBox="0 0 179.594 48.844">
  <metadata><?xpacket begin="﻿" id="W5M0MpCehiHzreSzNTczkc9d"?>
<x:xmpmeta xmlns:x="adobe:ns:meta/" x:xmptk="Adobe XMP Core 5.6-c138 79.159824, 2016/09/14-01:09:01        ">
   <rdf:RDF xmlns:rdf="http://www.w3.org/1999/02/22-rdf-syntax-ns#">
      <rdf:Description rdf:about=""/>
   </rdf:RDF>
</x:xmpmeta>
                                                                                                    
                                                                                                    
                                                                                                    
                                                                                                    
                                                                                                    
                                                                                                    
                                                                                                    
                                                                                                    
                                                                                                    
                                                                                                    
                                                                                                    
                                                                                                    
                                                                                                    
                                                                                                    
                                                                                                    
                                                                                                    
                                                                                                    
                                                                                                    
                                                                                                    
                                                                                                    
                           
<?xpacket end="w"?></metadata>
<defs>
    <style>
      .cls-1 {
        fill: #fde428;
      }

      .cls-1, .cls-2 {
        fill-rule: evenodd;
      }

      .cls-2 {
        fill: #fff;
      }
    </style>
  </defs>
  <path id="Counsel" class="cls-1" d="M378.9,57.152a15.023,15.023,0,0,0-4.815,11.362,15.539,15.539,0,0,0,4.725,11.565,16.218,16.218,0,0,0,11.835,4.635,16.773,16.773,0,0,0,6.953-1.575,19.848,19.848,0,0,0,6.052-4.185L398.965,74a12.736,12.736,0,0,1-3.8,2.7,9.785,9.785,0,0,1-4.118.99,8.273,8.273,0,0,1-6.255-2.655,9.234,9.234,0,0,1-2.52-6.615,9.042,9.042,0,0,1,2.52-6.5,8.309,8.309,0,0,1,6.255-2.633,9.22,9.22,0,0,1,4.253,1.1,11.406,11.406,0,0,1,3.667,2.992l4.635-5.49a18.345,18.345,0,0,0-12.69-5.31A16.778,16.778,0,0,0,378.9,57.152Zm29.43,6.075A11.7,11.7,0,0,0,404.68,72.2a11.765,11.765,0,0,0,3.645,9,15.2,15.2,0,0,0,19.215,0,11.765,11.765,0,0,0,3.645-9,11.7,11.7,0,0,0-3.645-8.977A15.283,15.283,0,0,0,408.325,63.227Zm13.522,4.522a7.637,7.637,0,0,1,0,9.112,4.921,4.921,0,0,1-3.892,1.733,4.971,4.971,0,0,1-3.938-1.733,7.641,7.641,0,0,1,0-9.112A5.244,5.244,0,0,1,421.847,67.75Zm29.362-7.65V72.07a6.447,6.447,0,0,1-1.26,4.117,4.289,4.289,0,0,1-3.465,1.642,3.75,3.75,0,0,1-2.947-1.237,4.921,4.921,0,0,1-1.1-3.4V60.1h-7.785V75.4a9.47,9.47,0,0,0,2.363,6.75,8.251,8.251,0,0,0,6.322,2.52,8.41,8.41,0,0,0,7.875-4.32v4h7.785V60.1h-7.785Zm21.78,3.96V60.1H465.2V84.355h7.785V71.53a5.718,5.718,0,0,1,1.553-3.555,4.557,4.557,0,0,1,3.4-1.35,4.058,4.058,0,0,1,3.128,1.237,4.737,4.737,0,0,1,1.147,3.353v13.14h7.74v-15.3a9.394,9.394,0,0,0-2.43-6.773,8.491,8.491,0,0,0-6.435-2.543q-5.535.091-8.1,4.32h0Zm24.075-2.3a6.639,6.639,0,0,0-2.745,5.67,6.066,6.066,0,0,0,1.282,3.96,7.664,7.664,0,0,0,3.128,2.317,32.133,32.133,0,0,0,3.69,1.237,17.425,17.425,0,0,1,3.127,1.125,1.851,1.851,0,0,1,1.283,1.575q0,1.665-2.655,1.665a14.82,14.82,0,0,1-8.595-3.015L493.1,81.25a17.35,17.35,0,0,0,10.89,3.42,12.312,12.312,0,0,0,7.38-2.047,6.627,6.627,0,0,0,2.835-5.692,6.118,6.118,0,0,0-1.3-3.96,7.661,7.661,0,0,0-3.173-2.362,32.436,32.436,0,0,0-3.757-1.237,19.1,19.1,0,0,1-3.195-1.1,1.8,1.8,0,0,1-1.305-1.507q0-1.664,2.385-1.665a16.875,16.875,0,0,1,7.65,2.43l2.655-5.04a19.276,19.276,0,0,0-9.99-2.745A11.672,11.672,0,0,0,497.064,61.765Zm22.971,1.485a12.1,12.1,0,0,0-3.487,9.045,11.89,11.89,0,0,0,3.487,8.955q3.488,3.375,9.383,3.375,6.658,0,10.575-4.275l-4.1-4.005a7.947,7.947,0,0,1-5.805,2.475,5.7,5.7,0,0,1-3.645-1.17,6.115,6.115,0,0,1-2.07-3.33h17.055q0.4-6.75-2.768-10.62t-9.472-3.87A12.52,12.52,0,0,0,520.035,63.25Zm5.918,3.308a4.564,4.564,0,0,1,3.33-1.328,4.467,4.467,0,0,1,3.4,1.35,4.95,4.95,0,0,1,1.283,3.555h-9.72A6.237,6.237,0,0,1,525.953,66.557Zm27.719-15.593h-7.785v33.39h7.785V50.965Z" transform="translate(-374.094 -50.969)"/>
  <path id="own_your_course" data-name="own your course" class="cls-2" d="M377.731,91.97a3.953,3.953,0,0,0-1.316,3.044,4.048,4.048,0,0,0,1.316,3.082,5.017,5.017,0,0,0,6.588.014A4.2,4.2,0,0,0,384.325,92,5.081,5.081,0,0,0,377.731,91.97Zm4.991,1.305a2.458,2.458,0,0,1,.689,1.772,2.485,2.485,0,0,1-.689,1.78,2.215,2.215,0,0,1-1.676.721,2.307,2.307,0,0,1-1.7-.731,2.454,2.454,0,0,1-.713-1.784,2.41,2.41,0,0,1,.707-1.768,2.306,2.306,0,0,1,1.706-.709A2.247,2.247,0,0,1,382.722,93.276Zm20.008-2.368-2.218-.007-1.646,6.175L397.2,90.89l-2.12-.007-1.634,6.175-1.67-6.185-2.315-.007,2.791,8.409,2.243,0.007,1.608-5.8,1.585,5.813,2.231,0.007Zm12.3,0.038-2.023-.006v5.184l-3.937-5.2-1.913-.006v8.4l2.035,0.006V94.156l3.925,5.184,1.913,0.006v-8.4Zm19.344,0.06L432.2,91l-2.011,3.654-2.06-3.666-2.169-.007,3.157,5.758v2.652l2.157,0.007V96.684Zm5.034,1.156a3.954,3.954,0,0,0-1.317,3.044,4.049,4.049,0,0,0,1.317,3.082,5.017,5.017,0,0,0,6.588.014A4.2,4.2,0,0,0,446,92.188,5.081,5.081,0,0,0,439.406,92.161Zm4.991,1.305a2.458,2.458,0,0,1,.689,1.772,2.485,2.485,0,0,1-.689,1.78,2.216,2.216,0,0,1-1.676.721,2.307,2.307,0,0,1-1.7-.731,2.454,2.454,0,0,1-.713-1.784,2.406,2.406,0,0,1,.707-1.768,2.306,2.306,0,0,1,1.706-.709A2.248,2.248,0,0,1,444.4,93.467Zm13.243-2.389V95.95a1.861,1.861,0,0,1-.469,1.343,1.642,1.642,0,0,1-1.249.488,1.735,1.735,0,0,1-1.286-.5,1.823,1.823,0,0,1-.494-1.34V91.067l-2.17-.007v4.872a3.424,3.424,0,0,0,1.067,2.649,4.093,4.093,0,0,0,2.87.987,3.985,3.985,0,0,0,2.84-.969,3.433,3.433,0,0,0,1.049-2.643V91.084Zm14.98,8.446-1.792-2.778a2.733,2.733,0,0,0,1.548-2.7,2.656,2.656,0,0,0-.926-2.169,4.031,4.031,0,0,0-2.621-.77l-3.815-.012v8.4l2.17,0.007V97.143l1.645,0.005h0.061l1.268,2.368Zm-5.436-6.737,1.645,0.005a1.632,1.632,0,0,1,1.1.339,1.231,1.231,0,0,1,.39.985,1.277,1.277,0,0,1-.39,1.007,1.586,1.586,0,0,1-1.1.345l-1.645-.005V92.787Zm17.539-.48a3.965,3.965,0,0,0-1.3,3.026,4.125,4.125,0,0,0,1.28,3.088,4.443,4.443,0,0,0,3.206,1.246,4.6,4.6,0,0,0,1.883-.414,5.357,5.357,0,0,0,1.639-1.111l-1.267-1.324a3.449,3.449,0,0,1-1.03.717,2.679,2.679,0,0,1-1.116.261,2.265,2.265,0,0,1-1.694-.713,2.448,2.448,0,0,1-.682-1.766,2.383,2.383,0,0,1,.682-1.732,2.261,2.261,0,0,1,1.694-.7,2.534,2.534,0,0,1,1.152.3,3.1,3.1,0,0,1,.994.8l1.255-1.46a5.024,5.024,0,0,0-3.437-1.427A4.574,4.574,0,0,0,484.723,92.307Zm11.957,0.031a3.957,3.957,0,0,0-1.316,3.044,4.051,4.051,0,0,0,1.316,3.082,5.017,5.017,0,0,0,6.588.014,4.2,4.2,0,0,0,.007-6.114A5.082,5.082,0,0,0,496.68,92.338Zm4.992,1.306a2.458,2.458,0,0,1,.688,1.772,2.484,2.484,0,0,1-.688,1.78,2.216,2.216,0,0,1-1.676.721,2.311,2.311,0,0,1-1.7-.731,2.454,2.454,0,0,1-.713-1.784,2.41,2.41,0,0,1,.707-1.768A2.308,2.308,0,0,1,500,92.925,2.248,2.248,0,0,1,501.672,93.644Zm13.243-2.389v4.872a1.861,1.861,0,0,1-.47,1.342,1.639,1.639,0,0,1-1.249.488,1.737,1.737,0,0,1-1.286-.5,1.822,1.822,0,0,1-.493-1.34V91.244l-2.17-.007v4.872a3.423,3.423,0,0,0,1.066,2.649,4.094,4.094,0,0,0,2.871.987,3.987,3.987,0,0,0,2.84-.969,3.432,3.432,0,0,0,1.048-2.643V91.262ZM529.9,99.7L528.1,96.924a2.733,2.733,0,0,0,1.548-2.7,2.653,2.653,0,0,0-.927-2.169,4.028,4.028,0,0,0-2.62-.77l-3.815-.012v8.4l2.169,0.007V97.32l1.646,0.005h0.061l1.267,2.368Zm-5.437-6.737L526.1,92.97a1.635,1.635,0,0,1,1.1.339,1.232,1.232,0,0,1,.39.985,1.276,1.276,0,0,1-.39,1.007,1.587,1.587,0,0,1-1.1.345l-1.646-.005V92.964Zm11.123-1.052a2.17,2.17,0,0,0-.933,1.839,2.1,2.1,0,0,0,.335,1.2,2.013,2.013,0,0,0,.835.729,10.5,10.5,0,0,0,1.085.423q0.585,0.194,1.085.309a2.381,2.381,0,0,1,.835.351,0.7,0.7,0,0,1,.335.583,0.6,0.6,0,0,1-.293.545,1.513,1.513,0,0,1-.816.183,4.25,4.25,0,0,1-1.56-.359,5.5,5.5,0,0,1-1.524-.911l-0.841,1.641a5.924,5.924,0,0,0,1.8.99,6.361,6.361,0,0,0,2.1.367,4.146,4.146,0,0,0,2.45-.671,2.174,2.174,0,0,0,.963-1.887,2.1,2.1,0,0,0-.463-1.393,2.671,2.671,0,0,0-1.127-.8q-0.664-.248-1.329-0.424a5.463,5.463,0,0,1-1.127-.418,0.721,0.721,0,0,1-.464-0.637q0-.612.939-0.609a4.395,4.395,0,0,1,1.292.25,7.5,7.5,0,0,1,1.438.634l0.817-1.665a6.084,6.084,0,0,0-3.364-.946A4.041,4.041,0,0,0,535.581,91.913Zm17.375-.54-6.68-.021v8.4l6.814,0.021v-1.68l-4.644-.014V96.387l4.071,0.013v-1.68l-4.071-.013V93.039l4.51,0.014v-1.68Z" transform="translate(-374.094 -50.969)"/>
</svg>
